<?xml version="1.0" encoding="utf-8"?>
<!-- Generator: Adobe Illustrator 21.0.2, SVG Export Plug-In . SVG Version: 6.00 Build 0)  -->
<svg version="1.1" id="citySVG" xmlns="http://www.w3.org/2000/svg" xmlns:xlink="http://www.w3.org/1999/xlink" x="0px" y="0px"
	 viewBox="0 0 919 154" style="enable-background:new 0 0 919 154;" xml:space="preserve">
<style type="text/css">
	.st0{fill:none;stroke:#000000;stroke-miterlimit:10;}
</style>
<path class="st0" d="M125.2,127.8v-4.6l1.4-1.8l1.4,1.8v4.6"/>
<path class="st0" d="M135.6,117v-3.4l1.5-1.1l1.4,1.1v3.4"/>
<path class="st0" d="M125.2,118.2v-3.4l1.4-1l1.4,1v3.4"/>
<path class="st0" d="M140.5,117v-3.4l1.4-1.1l1.4,1.1v3.4"/>
<path class="st0" d="M145.5,117v-3.4l1.4-1.1l1.4,1.1v3.4"/>
<path class="st0" d="M150.3,117v-3.4l1.4-1.1l1.4,1.1v3.4"/>
<path class="st0" d="M155.5,117v-3.4l1.4-1.1l1.4,1.1v3.4"/>
<path class="st0" d="M160.1,117v-3.4l1.4-1.1l1.4,1.1v3.4"/>
<path class="st0" d="M176.8,117v-3.4l1.4-1.1l1.4,1.1v3.4"/>
<path class="st0" d="M181.8,117v-3.4l1.4-1.1l1.4,1.1v3.4"/>
<path class="st0" d="M186.8,117v-3.4l1.4-1.1l1.4,1.1v3.4"/>
<path class="st0" d="M191.6,117v-3.4l1.5-1.1l1.4,1.1v3.4"/>
<path class="st0" d="M196.7,117v-3.4l1.4-1.1l1.4,1.1v3.4"/>
<path class="st0" d="M201.3,117.2v-3.4l1.4-1.1l1.4,1.1v3.4"/>
<path class="st0" d="M135.4,109.1l1.7-2.2l1.4,2.2h-1"/>
<path class="st0" d="M140.5,109.1l1.6-2.2l1.4,2.2h-1"/>
<path class="st0" d="M145.5,109.1l1.6-2.2l1.4,2.2h-1"/>
<path class="st0" d="M150.3,109.1l1.6-2.2l1.4,2.2h-1"/>
<path class="st0" d="M155.3,109.1l1.6-2.2l1.4,2.2h-1"/>
<path class="st0" d="M160.3,109.1l1.6-2.2l1.4,2.2h-1"/>
<path class="st0" d="M177,109.1l1.6-2.2l1.4,2.2h-1"/>
<path class="st0" d="M181.6,109.1l1.6-2.2l1.4,2.2h-1"/>
<path class="st0" d="M186.6,109.1l1.6-2.2l1.4,2.2h-1"/>
<path class="st0" d="M191.4,109.1l1.7-2.2l1.4,2.2h-1"/>
<path class="st0" d="M196.5,108.9l1.6-2.2l1.4,2.2h-1"/>
<path class="st0" d="M201.1,108.7l1.6-2.2l1.4,2.2h-1"/>
<path class="st0" d="M429.7,124v-2h-5v2h-1.2v-2h-5v2h-1.4v-2h-5v2h-1.2v-2h-5.2v2h-9.2v-1h5.6v-2h-5.2v1.2h-1.4v1.8H390v-3.2
	c0,0-0.6-1.8-2.6-1.8s-2.4,1.4-2.4,1.4v3.2h-1v-3.2c0,0-0.8-2.4-3.6-2.2c-2.8,0.2-3.4,2.2-3.4,2.2v2.8h-0.8v-2.8
	c0,0-0.8-1.4-2.2-1.4c-1.4,0-2,1.2-2,1.2v3"/>
<path class="st0" d="M353,98v-2.9h2.3V98h2.3v-2.9h2.5V98h2.3v-2.9h2.1V98"/>
<path class="st0" d="M276.2,78.5v-4.3l1.2-2l0.8,2v4.3h1.8v-4l1.4-2.6l1.4,2.6v4h1.5v-4l1.4-2.6l0.9,2.6v4"/>
<path class="st0" d="M278.2,100.9V98l1.2-2l1.1,2v2.9h1.5V98l1.1-2l1.2,2v2.9"/>
<path class="st0" d="M278,113.3v-6.1l3.4-1.7l3.5,1.7v6.1h4.6v-2.9l0.8-1.2l1.2,1.5v3.4h-20.2v-2.9l0.9-1.4l1.2,1.4v2.1h3.4"/>
<path class="st0" d="M744.4,137.5v-35.4h12.5l0.1,26.6h2.1l0.1-10.6l2.3-3.5h9.1l1.2,2.3l-0.3,21.6h3l77,1.7l18.2,0.3v-7.1h-9.1
	l-2-2.3l1.8-2h9.3v-7.4l0.7-0.8l0.7,0.8v1.4h9.2l1.8,2.1l-1.6,2.1l-9.6,0.2l0.2,13H885"/>
<path class="st0" d="M659.7,137.6v-5.9l-21.4,0.1v-2.3h-16v11.4l-1.2,0.1v-13.9V73.7h2.5l-0.3-27.5L618.9,36v-8h-3.4l-4.6-16
	l-5.7,16h-3.4v9.1l-4.6,10.3v26.2h2.3v61.6h-11.4v-5.7h-10.3v-19.4l-3.4-2.3h-5.7l-3.4,2.3v19.4H563v-10.3l-1.1-2.3h-9.1l-1.2,2.3
	v6.9h-5.7v-14.9h-12.5v12.6h-8l-3.4-2.3h-4.6v-5.7l-2.3-3.4H506l-2.3,3.4v3.4h-2.3v-8l-2.3-3.4h-7.9l-1.2,3.4v10.3h-3.4V94.1
	l-1.1-3.4h-9.2l-1.1,2.3v33.1h-2.3l0.1-25.8h-13.3v28h-1.6v-11.4l-2.3-2.3h-9.1l-2.3,2.3v9.2l-0.1,4.7h-2.4V92.5l-2-0.2v-2.6
	l-3.6-19.5l-3.4,19.7v2.8l-2.4,0.2v22.3l-27.3,0.2l-4.2-3.9l-6.6,5.5l-0.6,0.2l-0.2-2.2h-1v2H390l-5.3-2.6v-1.9l-1.4-0.2v2.1
	l-6.4-0.2v-1.7h-0.8v1.9l-3.4,1.6h-1.2V99.7h-0.6v-3.2h-2v1.2l-1.6-0.6l-0.6-5.6l-1.2-1l-0.2-3l-4-4.9l-0.4-4.2l-1.9-2.6l-1.8,2.6
	l-0.4,4.2l-4.4,5.5v2.6l-1.4,0.8v6.4h-1.8l-0.2-1.2h-1.6v3h-0.8v18.1h-1.4V96.5h-3.4v-1.4l-5.6-1.4l-5.5,1.4v1.2h-3.6v2.8h-1.6
	l-0.8-1.2l-0.8,1.2h-0.4l-2-1l-0.4-19.7l-1.4-0.2l-3.6-14.8l-3.8,15.4h-1l-0.6,20.3h-0.8v-4l-1.2-1l-1,0.8v4.2h-0.6l-1-1.4l-0.6,1.2
	h-1l-1-4.8l-1.1,4.8h-1l-2-10.6l-1.8,10.6h-1.8l-1.4-4.8l-0.8,5h-0.4l-0.6-1.2l-0.6,1.2h-1.4l-2.2-2.6V73.2h-0.8l-0.2-2.6h-1V68
	l-4.2-4l-0.8-4.6l-0.6,4.8l-4.4,4.4v2h-1.5v3h-0.6v22.9l-2,2.6h-0.8l-0.8-1.2l-0.6,1.2h-0.4l-1.4-5l-1.6,5h-1.2l-2.2-9.8l-2,9.8
	l-1-0.2l-0.8-5l-1,5.2h-0.8l-0.8-1.2l-0.8,1.4h-0.8l-0.2-4.4l-1.4-0.8l-0.8,0.8v4.2h-0.8l-1-1.2l-0.8,1.2h-0.8l-0.8-1.2l-0.8,1.2
	h-1.1l-1-1.2l-0.6,1.2h-0.6l-1-5l-1,5h-1.2l-1-1.2l-1,1.2h-0.6l-1-1.2l-0.8,1.2h-1.6v-2.4l-3.6-0.2v-1.6l-4.6-1.6l-6.2,1.4v1.6
	l-3.5-0.2v28.7l-0.8,0.2V83.2l-0.8-3.6l-0.8,3.8v2.9h-1.8l-0.8-6.7l-0.4,6.7h-2.2V84l-0.4-4.4l-0.6,4.6v42l-1,0.2v-17.1l-2.4-5
	l-29.9,0.2v-5.8l-4.8-11.4l-0.6-4.9l-0.8,4.9l-5.2,11.4v5.6h-29.8l-2.6,5.8v1.2h0.4V129H131v-17.9l-2.2-4v-9h-1.2l-1-12.4l-1.4,12.2
	h-1v8.8l-2.2,4.2v16.5l-86.5,0.1"/>
<path class="st0" d="M656.6,92.5v1.6h-2.3"/>
<path class="st0" d="M704.2,136.7v-5.3h22.5v4.7"/>
<path class="st0" d="M715.9,138.5l-2.6-1.6c-0.3-0.2-0.6-0.5-0.7-0.8l-1.6-2.9l-0.9,2.3c-0.2,0.5-0.6,1-1.1,1.2l-2,0.9l-2.2-1.2
	c-0.4-0.2-0.7-0.5-0.9-0.9l-1.2-2.2l-0.6,1.7c-0.2,0.7-0.7,1.3-1.4,1.6l-2.1,1l-2.2-1.5c-0.4-0.2-0.6-0.6-0.8-1l-1-2.2l-0.9,2.2
	c-0.2,0.6-0.7,1.1-1.2,1.4l-1.9,1.1L688,136c-0.3-0.2-0.6-0.5-0.8-0.8L686,133l-0.6,1.7c-0.2,0.5-0.5,0.9-0.9,1.2l-2.1,1.7l-2.3-1.6
	c-0.3-0.2-0.5-0.4-0.7-0.8l-1.3-2.3l-0.6,1.8c-0.2,0.6-0.6,1.2-1.2,1.5l-2.2,1.3l-2.4-1.6c-0.3-0.2-0.5-0.4-0.6-0.7l-1.3-2.4l-0.7,2
	c-0.2,0.5-0.5,1-1,1.3l-2.1,1.4l-2.6-1.3c-0.3-0.2-0.6-0.4-0.8-0.8l-1-1.9l-1.3,2.1c-0.1,0.2-0.3,0.4-0.6,0.5l-2.4,1.3l-2.1-1.5
	c-0.3-0.2-0.5-0.5-0.6-0.8l-1-2.3l-0.7,2.2c-0.1,0.3-0.4,0.6-0.7,0.8l-2.6,1.6"/>
<path class="st0" d="M637.2,127.2h6.8v-21.7h-1.1V94.1h-2.3v-1.9h1.8l1.6-2.6v-2.3l1.1-6.9l1.2,6.9l1.1-6.9l1.2-8l1.1,8l1.1,6.9
	l1.7-6.3l1.2,5.7l0.2,2.8l0.6,3h2.1l-0.1,1.6h-2.2v3.4h10.2l2.3-1.6l2.3,1.6h10.3l2.5-2.5l3.2,2.5h10.2l1.8-1.6l1.6,1.6h11v-3.4
	h-1.8v-1.6h1.2l1-2.9v-3.5l1.2-4.5l1.1,4.5l1.6-6.8l1.3-6.8l0.9,6.8l1.2,7.1l1.3-5.4l1.5,5.4v3.1l1.3,3h1.2v1.6h-1.9v11.4h-0.9v21.6
	h6.8V108l4.6,4v14.8h4v-11.7l4.7,2.7v9.6h3.4v2.2h-18.2v0.9h-17.6h-3.7L683.2,120v-3.4l21.6,10.5l5.3,0.1v-21.7H709V101h-54.7v4.5
	h-1.2v21.7h4.6l22.8-10.3v3.5l-21.4,10.1h-1.5V128h-5.3v-19.4h-7.4v19.7h-22.5l-0.1-1.1h1.5v-9.9l4.4-2.8v12.7h4.2v-15.5l2.3-1.6
	l2.7-2.4"/>
<path class="st0" d="M721.8,103.6c0,0,6.8,6.2,11.1,9.6s9.9,5.9,9.9,5.9"/>
<path class="st0" d="M742.8,123.1c0,0-6.2-2.8-10.5-6.2c-4.3-3.4-10.5-12-10.5-12"/>
<path class="st0" d="M711.6,126.8v-18.5h6.8v18.5"/>
<line class="st0" x1="645.5" y1="97.8" x2="645.5" y2="102.1"/>
<line class="st0" x1="718.4" y1="97.8" x2="718.4" y2="102.1"/>
<line class="st0" x1="651.7" y1="97.8" x2="651.7" y2="102.1"/>
<line class="st0" x1="711.6" y1="97.8" x2="711.6" y2="102.1"/>
<path class="st0" d="M649.9,102v-4.3h-1.8v4.3"/>
<path class="st0" d="M715.7,102v-4.3h-1.6v4.3"/>
<path class="st0" d="M622.4,118.2c0,0,8-4.9,11.4-7.4s8-7.4,8-7.4"/>
<path class="st0" d="M622.4,123.1c0,0,9-5.9,11.7-8.3c2.8-2.5,7.7-9.3,7.7-9.3"/>
<path class="st0" d="M610.6,66c3.4,0,6.5-3.4,6.5-6.5s-1.5-6.5-6.5-6.5c-4.9,0-6.2,4.3-6.2,6.5s2.2,6.5,5.2,6.5v2.2c0,0-8-1.2-8-8.6
	c0-6.2,4.9-9.3,8.6-9.3s9.3,2.2,9.3,9.3c0,7.7-8,8.6-8,8.6v2.2h9.9V49h-21.3v21.3h10.5V66z"/>
<path class="st0" d="M610.6,61.1l-1.2-1.3v-0.6l-2.5-2.8l2.8,2.2l0.9-0.6l0.7,0.6l2.7-2.2l-2.1,2.8v0.6"/>
<path class="st0" d="M617.8,102.2V88.6h-15.2v13.6h12.9"/>
<path class="st0" d="M617.8,121.1v-13.6h-15.2v13.6h13.1"/>
<path class="st0" d="M617.8,140.2v-13.6h-15.2v13.6h12.5"/>
<path class="st0" d="M526.7,123.1h5.6l-4-3.1c0,0,1.5-2.8-0.6-4.3c-2.2-1.5-4.6-0.3-4.6-0.3l-4.3-7.1c0,0,2.4-2.5,1.5-4.9
	c-1.2-3.4-4.3-2.8-4.3-2.8v-7.7c0,0,2.2-0.3,2.8-3.1c0.6-2.8-1.5-4.6-1.5-4.6l2.8-6.8c0,0,2.5,0.9,4-1.2C525.6,75,525,72,525,72
	l6.2-5.2c0,0,2.8,0.9,4.6,0c1.9-0.9,1.9-3.7,1.9-3.7l7.4-1.2c0,0,1.5,2.2,4,2.2s4-2.5,4-2.5l7.4,1.9c0,0-0.6,2.8,2.2,4
	s4.6-0.3,4.6-0.3l6.5,4.6c0,0-0.9,3.1,0.6,4.9s3.7,1.9,3.7,1.9l3.1,6.8c0,0-1.9,0.9-1.9,3.7c0,2.8,2.8,3.7,2.8,3.7v7.7
	c0,0-2.8,0.3-3.7,2.5s0.9,4.6,0.9,4.6l-0.6,1.9v5.6l3.4-6.2c0,0,2.9-0.3,3.7-2.2c1.2-2.8-0.6-4.9-0.6-4.9v-9c0,0,2.5-1.2,2.5-4.3
	c0-3.1-3.1-3.7-3.1-3.7l-3.4-7.4c0,0,1.5-3.1-0.3-5.6c-1.9-2.5-4.3-1.9-4.3-1.9l-7.7-5.6c0,0,0.7-2.9-2.2-4.3
	c-2.5-1.2-4.9,0.9-4.9,0.9l-8.3-2.2c0,0-1.2-3.1-4.3-3.1s-4,2.8-4,2.8l-8,1.9c0,0-2.8-2.2-5.6-0.6c-2.8,1.5-1.9,4.3-1.9,4.3
	l-6.8,5.9c0,0-3.4-0.9-5.2,1.5c-1.9,2.5-0.6,5.2-0.6,5.2l-2.8,7.7c0,0-3.1,0.3-3.4,3.7c-0.3,3.1,2.2,4.3,2.2,4.3l0.3,8.6
	c0,0-1.9,2.2-0.9,5.2c0.6,2.2,3.4,2.2,3.4,2.2l5.2,8v3.4L526.7,123.1z"/>
<line class="st0" x1="516.8" y1="93.5" x2="581" y2="93.2"/>
<line class="st0" x1="528.2" y1="114.8" x2="570.5" y2="71.9"/>
<line class="st0" x1="527.3" y1="71.9" x2="565.3" y2="108"/>
<path class="st0" d="M543.7,110.1l4.6-14.8l0.9-1.2l1.2,1.2l5.9,20.7"/>
<path class="st0" d="M646.1,127.1h1v-7.4h3.4v7.4h0.6"/>
<path class="st0" d="M713.1,126.8h0.6v-7.1h3.1v7.1h0.6"/>
</svg>
